# xmcd
#
# Track frame offsets:
#	150
#	28257
#	50808
#	77634
#	101880
#	134520
#	156012
#	183567
#	207438
#	235920
#
# Disc length: 3675 seconds
# Revision: 0
# Processed by: cddbd v1.5.2PL0 Copyright (c) Steve Scherf et al.
# Submitted via: dBpowerAMP V12.0
#
DISCID=900e590a
DTITLE=Dżem - Symfonicznie
DYEAR=2012
DGENRE=Blues/Rock
TTITLE0=Złoty Paw
TTITLE1=Do Przodu
TTITLE2=Szara Mgła
TTITLE3=Kim Jestem-Jestem Sobie
TTITLE4=Ćma Barowa
TTITLE5=Gorszy Dzień
TTITLE6=W Drodze Do Nieba
TTITLE7=Wokół Sami Lunatycy
TTITLE8=Strach
TTITLE9=List Do M.
EXTD=
EXTT0=
EXTT1=
EXTT2=
EXTT3=
EXTT4=
EXTT5=
EXTT6=
EXTT7=
EXTT8=
EXTT9=
PLAYORDER=
